<?xml version="1.0" encoding="UTF-8" standalone="no"?>
<!-- Created with Inkscape (http://www.inkscape.org/) -->

<svg
   width="512"
   height="512"
   viewBox="0 0 135.46666 135.46667"
   version="1.1"
   id="svg1"
   xml:space="preserve"
   xmlns:xlink="http://www.w3.org/1999/xlink"
   xmlns="http://www.w3.org/2000/svg"
   xmlns:svg="http://www.w3.org/2000/svg"><defs
     id="defs1"><linearGradient
       id="linearGradient8"><stop
         style="stop-color:#3f68a2;stop-opacity:1;"
         offset="0"
         id="stop8" /><stop
         style="stop-color:#3f68a2;stop-opacity:0.87309647;"
         offset="1"
         id="stop9" /></linearGradient><linearGradient
       xlink:href="#linearGradient8"
       id="linearGradient9"
       x1="68.003761"
       y1="15.425904"
       x2="68.003754"
       y2="118.41725"
       gradientUnits="userSpaceOnUse"
       gradientTransform="matrix(1.1476019,0,0,1.1476019,-10.307902,-9.0660193)" /><filter
       style="color-interpolation-filters:sRGB"
       id="filter34"
       x="-0.060917258"
       y="-0.059450408"
       width="1.1472167"
       height="1.1436718"><feFlood
         result="flood"
         in="SourceGraphic"
         flood-opacity="0.356863"
         flood-color="rgb(0,0,0)"
         id="feFlood33" /><feGaussianBlur
         result="blur"
         in="SourceGraphic"
         stdDeviation="3.000000"
         id="feGaussianBlur33" /><feOffset
         result="offset"
         in="blur"
         dx="3.000000"
         dy="3.000000"
         id="feOffset33" /><feComposite
         result="comp1"
         operator="in"
         in="flood"
         in2="offset"
         id="feComposite33" /><feComposite
         result="comp2"
         operator="over"
         in="SourceGraphic"
         in2="comp1"
         id="feComposite34" /></filter></defs><g
     id="layer3"
     style="fill:#7d7d7d;fill-opacity:1"><ellipse
       style="fill:url(#linearGradient9);fill-opacity:1;stroke:none;stroke-width:1.30897;stroke-linecap:round;stroke-dasharray:none;stroke-opacity:1;paint-order:normal;filter:url(#filter34)"
       id="path8"
       cx="67.73333"
       cy="67.73333"
       rx="59.096554"
       ry="60.554672" /></g><path
     style="fill:#ffffff;fill-opacity:1;stroke:none;stroke-width:1.75295;stroke-dasharray:none;stroke-opacity:1"
     d="m 35.009529,105.28589 c -1.327291,-0.7074 -2.978348,-1.86065 -3.914011,-2.3983 -1.013233,-0.58222 -3.493721,-1.67522 -4.775572,-2.04307 -1.519768,-0.43613 -1.661861,-0.45384 -1.804986,-1.197037 -0.370252,-1.922565 4.413876,-0.870716 9.292425,2.043047 5.175984,3.09141 6.983597,3.04013 12.536187,-0.35557 1.654152,-1.0116 2.839688,-1.561983 3.893979,-1.971143 1.054291,-0.409159 1.977331,-0.677096 3.553196,-0.677096 1.605941,0 2.615787,0.204367 3.708627,0.642358 1.092839,0.437979 2.268674,1.109581 4.125373,2.247141 2.547896,1.56101 4.934263,2.57361 6.065175,2.57361 1.119642,0 3.554102,-1.02091 6.093797,-2.55549 1.901097,-1.14872 3.060764,-1.824665 4.177331,-2.286541 1.116568,-0.461876 2.190039,-0.709668 3.959355,-0.717811 1.698959,-0.0083 2.823928,0.381535 3.777596,0.747791 0.953669,0.366243 1.736035,0.709421 2.912239,1.502731 5.995476,4.04372 8.103413,4.12244 14.02736,0.52383 1.97559,-1.20011 4.69649,-2.330159 6.04644,-2.511233 2.15418,-0.288933 2.42799,-0.19175 2.23809,0.7944 -0.133,0.690623 -0.43409,1.055543 -1.58288,1.290493 -1.02794,0.21024 -4.09705,1.66269 -6.20607,2.96445 -3.285458,2.0279 -4.31803,2.36306 -7.210697,2.34054 -2.867188,-0.0224 -4.013671,-0.41028 -7.60541,-2.57361 -4.892527,-2.94682 -7.958386,-3.31253 -10.909625,-1.30136 -7.37769,5.02761 -10.291141,5.28423 -16.791578,1.47903 -6.118023,-3.58135 -7.791987,-3.58012 -13.761403,0.0106 -5.222719,3.14113 -8.00278,3.47646 -11.844938,1.42874 z"
     id="path5" /><path
     style="display:inline;fill:none;fill-opacity:1;stroke:#ffffff;stroke-width:2.66575;stroke-linecap:round;stroke-dasharray:none;stroke-opacity:1;paint-order:normal"
     d="M 87.992619,101.91901 C 73.406571,81.150393 73.811926,61.745685 73.811926,61.745685 c 0,0 2.755568,-0.123441 4.324942,-0.545906 1.740801,-0.468611 2.095314,-0.475338 3.298222,-0.954715 2.155422,-0.858964 4.143298,-2.185633 5.882435,-3.721547 2.290829,-2.023132 4.365823,-4.396068 5.822424,-7.082936 1.299831,-2.397705 2.031868,-5.109836 2.461015,-7.803234 0.302249,-1.896975 0.250171,-3.850876 0.06049,-5.76239 -0.143371,-1.444881 -0.06728,-3.072882 -0.900809,-4.261771 -0.500405,-0.71374 -1.351655,-1.315732 -2.22092,-1.380572 -1.108245,-0.08267 -2.065381,0.827358 -3.061275,1.320549 -1.974913,0.978032 -3.770355,2.298672 -5.762388,3.241344 -2.6398,1.249207 -5.430329,2.152009 -8.163383,3.18132 -1.753309,0.660323 -3.716124,0.892429 -5.282193,1.920796 -0.922745,0.605927 -2.275471,2.406175 -2.275471,2.406175 0,0 -1.726577,-1.729401 -2.766619,-2.34615 -1.677939,-0.995024 -3.640393,-1.403491 -5.462265,-2.100871 -2.099592,-0.803687 -4.256027,-1.470584 -6.302617,-2.400996 -1.898583,-0.863126 -3.64516,-2.032376 -5.522287,-2.941218 -1.57253,-0.761368 -3.054899,-2.086921 -4.801994,-2.100871 -0.932665,-0.0074 -2.00897,0.343815 -2.581068,1.080444 -1.178503,1.517432 -0.801428,3.781444 -0.840347,5.702367 -0.04605,2.273182 0.12083,4.589614 0.720295,6.782812 0.724748,2.651529 1.90332,5.211553 3.421417,7.503113 1.01624,1.534005 2.352509,2.849824 3.731847,4.067752 1.477217,1.304355 3.080686,2.495833 4.817726,3.426534 1.791872,0.960077 3.776911,1.644473 5.69572,2.17985 1.490375,0.4844 3.562715,0.610382 3.562715,0.610382 0,0 0.224786,20.210422 -14.345728,40.296124"
     id="path6" /></svg>
